# xmcd
#
# Track frame offsets: 
#        150
#        24714
#        44957
#        62080
#        78436
#        94535
#        113494
#        130371
#        147787
#        163445
#        183802
#        201535
#
# Disc length: 2983 seconds
#
# Revision: 0
# Processed by: cddbd v1.5.2PL0 Copyright (c) Steve Scherf et al.
# Submitted via: ExactAudioCopy v1.0b3
#
DISCID=ae0ba50c
DTITLE=超男超女 - 你会爱我吗？
DYEAR=2005
DGENRE=Pop
TTITLE0=许杨 - 你会爱我吗？
TTITLE1=Strings - Far Away
TTITLE2=GTR - 说出你的爱
TTITLE3=Strings - 傻瓜都一样
TTITLE4=胡景 - For You
TTITLE5=eZFly - 海边的抒情是为了女孩
TTITLE6=杨旸 - Like an angl
TTITLE7=SK - 心跳的理由
TTITLE8=糖果 - 糖果CHA CHA
TTITLE9=黄杰 - 你已不在
TTITLE10=2004年超级男声群星 - 梦想的声音
TTITLE11=2004年超级男声群星 - 飞
EXTD=
EXTT0=
EXTT1=
EXTT2=
EXTT3=
EXTT4=
EXTT5=
EXTT6=
EXTT7=
EXTT8=
EXTT9=
EXTT10=
EXTT11=
PLAYORDER=
